<mxfile host="www.draw.io" modified="2019-11-19T07:26:32.693Z" agent="Mozilla/5.0 (Windows NT 10.0; Win64; x64) AppleWebKit/537.36 (KHTML, like Gecko) Chrome/78.0.3904.97 Safari/537.36" etag="bSW6ML0eJMl9Flo-q41I" version="12.2.6" type="github" pages="1">
  <diagram id="4a39q2auaV-xZN6c6QUD" name="Page-1">
    <mxGraphModel dx="1102" dy="666" grid="1" gridSize="10" guides="1" tooltips="1" connect="1" arrows="1" fold="1" page="1" pageScale="1" pageWidth="827" pageHeight="1169" math="0" shadow="0">
      <root>
        <mxCell id="0"/>
        <mxCell id="1" parent="0"/>
        <mxCell id="7rycEqAyq2C3kYOs_G1K-17" value="" style="rounded=1;whiteSpace=wrap;html=1;shadow=0;glass=0;comic=0;labelBackgroundColor=none;strokeColor=#0000FF;strokeWidth=2;fillColor=none;fontFamily=Times New Roman;fontSize=17;" parent="1" vertex="1">
          <mxGeometry x="309.5" y="161" width="364" height="80" as="geometry"/>
        </mxCell>
        <mxCell id="7rycEqAyq2C3kYOs_G1K-13" value="" style="rounded=1;whiteSpace=wrap;html=1;shadow=0;glass=0;comic=0;labelBackgroundColor=none;fillColor=none;fontFamily=Times New Roman;fontSize=17;strokeColor=#FF3333;fontColor=#ffffff;strokeWidth=2;" parent="1" vertex="1">
          <mxGeometry x="115" y="151" width="140" height="419" as="geometry"/>
        </mxCell>
        <mxCell id="o6BnJkaYNzVzD3ShalXg-1" value="均值" style="rounded=0;whiteSpace=wrap;html=1;fontSize=17;fontFamily=Times New Roman;strokeColor=#FF0000;strokeWidth=1;" parent="1" vertex="1">
          <mxGeometry x="125" y="164.5" width="120" height="40" as="geometry"/>
        </mxCell>
        <mxCell id="o6BnJkaYNzVzD3ShalXg-2" value="均方根" style="rounded=0;whiteSpace=wrap;html=1;fontSize=17;fontFamily=Times New Roman;strokeColor=#FF0000;" parent="1" vertex="1">
          <mxGeometry x="125" y="227" width="120" height="40" as="geometry"/>
        </mxCell>
        <mxCell id="o6BnJkaYNzVzD3ShalXg-3" value="标准差" style="rounded=0;whiteSpace=wrap;html=1;fontSize=17;fontFamily=Times New Roman;strokeColor=#FF0000;" parent="1" vertex="1">
          <mxGeometry x="125" y="289.5" width="120" height="40" as="geometry"/>
        </mxCell>
        <mxCell id="o6BnJkaYNzVzD3ShalXg-4" value="&lt;span style=&quot;font-size: 17px; line-height: 150%;&quot;&gt;SFS&lt;/span&gt;" style="rounded=0;whiteSpace=wrap;html=1;fontSize=17;fontFamily=Times New Roman;strokeColor=#33FF33;" parent="1" vertex="1">
          <mxGeometry x="329.5" y="327" width="80" height="63" as="geometry"/>
        </mxCell>
        <mxCell id="o6BnJkaYNzVzD3ShalXg-5" value="相关系数" style="rounded=0;whiteSpace=wrap;html=1;fontSize=17;fontFamily=Times New Roman;strokeColor=#CC0000;" parent="1" vertex="1">
          <mxGeometry x="125" y="518" width="120" height="40" as="geometry"/>
        </mxCell>
        <mxCell id="o6BnJkaYNzVzD3ShalXg-6" value="偏度" style="rounded=0;whiteSpace=wrap;html=1;fontSize=17;fontFamily=Times New Roman;strokeColor=#FF0000;" parent="1" vertex="1">
          <mxGeometry x="125" y="448" width="120" height="40" as="geometry"/>
        </mxCell>
        <mxCell id="L1K248meVKGxkzELrdeW-1" value="" style="shape=flexArrow;endArrow=classic;html=1;fontSize=17;fontFamily=Times New Roman;fillColor=#ffffff;" parent="1" edge="1">
          <mxGeometry width="50" height="50" relative="1" as="geometry">
            <mxPoint x="247" y="277" as="sourcePoint"/>
            <mxPoint x="287" y="277" as="targetPoint"/>
          </mxGeometry>
        </mxCell>
        <mxCell id="L1K248meVKGxkzELrdeW-2" value="" style="shape=flexArrow;endArrow=classic;html=1;fontSize=17;fontFamily=Times New Roman;fillColor=#ffffff;" parent="1" edge="1">
          <mxGeometry width="50" height="50" relative="1" as="geometry">
            <mxPoint x="448.5" y="309" as="sourcePoint"/>
            <mxPoint x="488.5" y="309" as="targetPoint"/>
          </mxGeometry>
        </mxCell>
        <mxCell id="L1K248meVKGxkzELrdeW-3" value="&lt;span style=&quot;font-size: 17px; line-height: 150%;&quot;&gt;特征集合&lt;/span&gt;" style="rounded=0;whiteSpace=wrap;html=1;fontSize=17;fontFamily=Times New Roman;strokeColor=#33FF33;" parent="1" vertex="1">
          <mxGeometry x="495.5" y="287" width="80" height="45" as="geometry"/>
        </mxCell>
        <mxCell id="L1K248meVKGxkzELrdeW-4" value="时间序列行为数据" style="rounded=0;whiteSpace=wrap;html=1;fontSize=17;fontFamily=Times New Roman;strokeColor=#0000FF;" parent="1" vertex="1">
          <mxGeometry x="295" y="165" width="80" height="43" as="geometry"/>
        </mxCell>
        <mxCell id="L1K248meVKGxkzELrdeW-5" value="特征向量" style="rounded=0;whiteSpace=wrap;html=1;fontSize=17;fontFamily=Times New Roman;strokeColor=#33FF33;" parent="1" vertex="1">
          <mxGeometry x="575.5" y="287" width="80" height="45" as="geometry"/>
        </mxCell>
        <mxCell id="L1K248meVKGxkzELrdeW-10" value="行为分类" style="rounded=0;whiteSpace=wrap;html=1;fontSize=17;fontFamily=Times New Roman;strokeColor=#33FF33;" parent="1" vertex="1">
          <mxGeometry x="701.5" y="287" width="160" height="45" as="geometry"/>
        </mxCell>
        <mxCell id="7rycEqAyq2C3kYOs_G1K-2" value="" style="shape=flexArrow;endArrow=classic;html=1;fontSize=17;fontFamily=Times New Roman;fillColor=#ffffff;" parent="1" edge="1">
          <mxGeometry width="50" height="50" relative="1" as="geometry">
            <mxPoint x="491.5" y="200.5" as="sourcePoint"/>
            <mxPoint x="531.5" y="200.5" as="targetPoint"/>
          </mxGeometry>
        </mxCell>
        <mxCell id="7rycEqAyq2C3kYOs_G1K-9" value="神经网络" style="ellipse;whiteSpace=wrap;html=1;rounded=0;shadow=0;glass=0;comic=0;labelBackgroundColor=none;fillColor=#ffffff;fontFamily=Times New Roman;fontSize=17;strokeColor=#0000FF;" parent="1" vertex="1">
          <mxGeometry x="555.5" y="167" width="110" height="60" as="geometry"/>
        </mxCell>
        <mxCell id="7rycEqAyq2C3kYOs_G1K-21" value="&lt;font style=&quot;font-size: 17px;&quot;&gt;&lt;b style=&quot;font-size: 17px;&quot;&gt;......&lt;/b&gt;&lt;br style=&quot;font-size: 17px;&quot;&gt;&lt;/font&gt;" style="text;html=1;strokeColor=none;fillColor=none;align=center;verticalAlign=middle;whiteSpace=wrap;rounded=0;shadow=0;glass=0;comic=0;labelBackgroundColor=none;fontFamily=Times New Roman;fontSize=17;direction=south;rotation=89;" parent="1" vertex="1">
          <mxGeometry x="155" y="383.5" width="70" height="11" as="geometry"/>
        </mxCell>
        <mxCell id="yiICv3iwBEEqGms3I8O2-3" value="" style="rounded=1;whiteSpace=wrap;html=1;shadow=0;glass=0;comic=0;labelBackgroundColor=none;strokeColor=#33FF33;strokeWidth=2;fillColor=none;fontFamily=Times New Roman;fontSize=17;" vertex="1" parent="1">
          <mxGeometry x="827" y="1095" width="356" height="255" as="geometry"/>
        </mxCell>
        <mxCell id="yiICv3iwBEEqGms3I8O2-4" value="" style="rounded=1;whiteSpace=wrap;html=1;shadow=0;glass=0;comic=0;labelBackgroundColor=none;strokeColor=#0000FF;strokeWidth=2;fillColor=none;fontFamily=Times New Roman;fontSize=17;" vertex="1" parent="1">
          <mxGeometry x="321.5" y="1080" width="364" height="80" as="geometry"/>
        </mxCell>
        <mxCell id="yiICv3iwBEEqGms3I8O2-5" value="" style="rounded=1;whiteSpace=wrap;html=1;shadow=0;glass=0;comic=0;labelBackgroundColor=none;fillColor=none;fontFamily=Times New Roman;fontSize=17;strokeColor=#FF3333;fontColor=#ffffff;strokeWidth=2;" vertex="1" parent="1">
          <mxGeometry x="160.5" y="1082" width="140" height="419" as="geometry"/>
        </mxCell>
        <mxCell id="yiICv3iwBEEqGms3I8O2-6" value="" style="shape=flexArrow;endArrow=classic;html=1;fontSize=17;fontFamily=Times New Roman;fillColor=#ffffff;" edge="1" parent="1">
          <mxGeometry width="50" height="50" relative="1" as="geometry">
            <mxPoint x="660" y="1255.5" as="sourcePoint"/>
            <mxPoint x="660" y="1286.5" as="targetPoint"/>
          </mxGeometry>
        </mxCell>
        <mxCell id="yiICv3iwBEEqGms3I8O2-7" value="均值" style="rounded=0;whiteSpace=wrap;html=1;fontSize=17;fontFamily=Times New Roman;strokeColor=#FF0000;strokeWidth=1;" vertex="1" parent="1">
          <mxGeometry x="170.5" y="1095.5" width="120" height="40" as="geometry"/>
        </mxCell>
        <mxCell id="yiICv3iwBEEqGms3I8O2-8" value="均方根" style="rounded=0;whiteSpace=wrap;html=1;fontSize=17;fontFamily=Times New Roman;strokeColor=#FF0000;" vertex="1" parent="1">
          <mxGeometry x="170.5" y="1158" width="120" height="40" as="geometry"/>
        </mxCell>
        <mxCell id="yiICv3iwBEEqGms3I8O2-9" value="标准差" style="rounded=0;whiteSpace=wrap;html=1;fontSize=17;fontFamily=Times New Roman;strokeColor=#FF0000;" vertex="1" parent="1">
          <mxGeometry x="170.5" y="1220.5" width="120" height="40" as="geometry"/>
        </mxCell>
        <mxCell id="yiICv3iwBEEqGms3I8O2-11" value="相关系数" style="rounded=0;whiteSpace=wrap;html=1;fontSize=17;fontFamily=Times New Roman;strokeColor=#CC0000;" vertex="1" parent="1">
          <mxGeometry x="170.5" y="1449" width="120" height="40" as="geometry"/>
        </mxCell>
        <mxCell id="yiICv3iwBEEqGms3I8O2-12" value="偏度" style="rounded=0;whiteSpace=wrap;html=1;fontSize=17;fontFamily=Times New Roman;strokeColor=#FF0000;" vertex="1" parent="1">
          <mxGeometry x="170.5" y="1379" width="120" height="40" as="geometry"/>
        </mxCell>
        <mxCell id="yiICv3iwBEEqGms3I8O2-13" value="" style="shape=flexArrow;endArrow=classic;html=1;fontSize=17;fontFamily=Times New Roman;fillColor=#ffffff;" edge="1" parent="1">
          <mxGeometry width="50" height="50" relative="1" as="geometry">
            <mxPoint x="292.5" y="1208" as="sourcePoint"/>
            <mxPoint x="332.5" y="1208" as="targetPoint"/>
          </mxGeometry>
        </mxCell>
        <mxCell id="yiICv3iwBEEqGms3I8O2-14" value="" style="shape=flexArrow;endArrow=classic;html=1;fontSize=17;fontFamily=Times New Roman;fillColor=#ffffff;" edge="1" parent="1">
          <mxGeometry width="50" height="50" relative="1" as="geometry">
            <mxPoint x="508" y="1226" as="sourcePoint"/>
            <mxPoint x="548" y="1226" as="targetPoint"/>
          </mxGeometry>
        </mxCell>
        <mxCell id="yiICv3iwBEEqGms3I8O2-15" value="&lt;span style=&quot;font-size: 17px; line-height: 150%;&quot;&gt;特征集合&lt;/span&gt;" style="rounded=0;whiteSpace=wrap;html=1;fontSize=17;fontFamily=Times New Roman;strokeColor=#33FF33;" vertex="1" parent="1">
          <mxGeometry x="575" y="1206" width="80" height="45" as="geometry"/>
        </mxCell>
        <mxCell id="yiICv3iwBEEqGms3I8O2-16" value="时间序列行为数据" style="rounded=0;whiteSpace=wrap;html=1;fontSize=17;fontFamily=Times New Roman;strokeColor=#0000FF;" vertex="1" parent="1">
          <mxGeometry x="335.5" y="1102" width="80" height="43" as="geometry"/>
        </mxCell>
        <mxCell id="yiICv3iwBEEqGms3I8O2-17" value="特征向量" style="rounded=0;whiteSpace=wrap;html=1;fontSize=17;fontFamily=Times New Roman;strokeColor=#33FF33;" vertex="1" parent="1">
          <mxGeometry x="655" y="1206" width="80" height="45" as="geometry"/>
        </mxCell>
        <mxCell id="yiICv3iwBEEqGms3I8O2-18" value="行为分类" style="rounded=0;whiteSpace=wrap;html=1;fontSize=17;fontFamily=Times New Roman;strokeColor=#33FF33;" vertex="1" parent="1">
          <mxGeometry x="575" y="1289" width="160" height="45" as="geometry"/>
        </mxCell>
        <mxCell id="yiICv3iwBEEqGms3I8O2-19" value="特征选择" style="rounded=1;whiteSpace=wrap;html=1;fontSize=17;fontFamily=Times New Roman;strokeColor=#000000;fillColor=#CC6600;strokeWidth=2;" vertex="1" parent="1">
          <mxGeometry x="790" y="1389" width="120" height="60" as="geometry"/>
        </mxCell>
        <mxCell id="yiICv3iwBEEqGms3I8O2-20" value="识别率" style="rounded=0;whiteSpace=wrap;html=1;fontSize=17;fontFamily=Times New Roman;strokeColor=#33FF33;" vertex="1" parent="1">
          <mxGeometry x="890" y="1020" width="80" height="45" as="geometry"/>
        </mxCell>
        <mxCell id="yiICv3iwBEEqGms3I8O2-21" value="" style="shape=flexArrow;endArrow=classic;html=1;fontSize=17;fontFamily=Times New Roman;fillColor=#ffffff;" edge="1" parent="1">
          <mxGeometry width="50" height="50" relative="1" as="geometry">
            <mxPoint x="445" y="1285.5" as="sourcePoint"/>
            <mxPoint x="445" y="1254.5" as="targetPoint"/>
          </mxGeometry>
        </mxCell>
        <mxCell id="yiICv3iwBEEqGms3I8O2-23" value="" style="shape=flexArrow;endArrow=classic;html=1;fontSize=17;fontFamily=Times New Roman;fillColor=#ffffff;" edge="1" parent="1">
          <mxGeometry width="50" height="50" relative="1" as="geometry">
            <mxPoint x="444" y="1335.5" as="sourcePoint"/>
            <mxPoint x="444" y="1366.5" as="targetPoint"/>
          </mxGeometry>
        </mxCell>
        <mxCell id="yiICv3iwBEEqGms3I8O2-24" value="特征值权重分析" style="rounded=0;whiteSpace=wrap;html=1;fontSize=17;fontFamily=Times New Roman;strokeColor=#33FF33;" vertex="1" parent="1">
          <mxGeometry x="409.5" y="1366.5" width="80" height="45" as="geometry"/>
        </mxCell>
        <mxCell id="yiICv3iwBEEqGms3I8O2-25" value="" style="shape=flexArrow;endArrow=classic;html=1;fontSize=17;fontFamily=Times New Roman;fillColor=#ffffff;" edge="1" parent="1">
          <mxGeometry width="50" height="50" relative="1" as="geometry">
            <mxPoint x="621.5" y="1154.5" as="sourcePoint"/>
            <mxPoint x="621.5" y="1185.5" as="targetPoint"/>
          </mxGeometry>
        </mxCell>
        <mxCell id="yiICv3iwBEEqGms3I8O2-26" value="" style="shape=flexArrow;endArrow=classic;html=1;fontSize=17;fontFamily=Times New Roman;fillColor=#ffffff;" edge="1" parent="1">
          <mxGeometry width="50" height="50" relative="1" as="geometry">
            <mxPoint x="475.5" y="1119.5" as="sourcePoint"/>
            <mxPoint x="515.5" y="1119.5" as="targetPoint"/>
          </mxGeometry>
        </mxCell>
        <mxCell id="yiICv3iwBEEqGms3I8O2-27" value="" style="shape=flexArrow;endArrow=classic;html=1;fontSize=17;fontFamily=Times New Roman;fillColor=#ffffff;" edge="1" parent="1">
          <mxGeometry width="50" height="50" relative="1" as="geometry">
            <mxPoint x="842.5" y="1540" as="sourcePoint"/>
            <mxPoint x="842.5" y="1571" as="targetPoint"/>
          </mxGeometry>
        </mxCell>
        <mxCell id="yiICv3iwBEEqGms3I8O2-28" value="神经网络" style="ellipse;whiteSpace=wrap;html=1;rounded=0;shadow=0;glass=0;comic=0;labelBackgroundColor=none;fillColor=#ffffff;fontFamily=Times New Roman;fontSize=17;strokeColor=#0000FF;" vertex="1" parent="1">
          <mxGeometry x="558.5" y="1088" width="110" height="60" as="geometry"/>
        </mxCell>
        <mxCell id="yiICv3iwBEEqGms3I8O2-29" value="" style="shape=flexArrow;endArrow=classic;html=1;fontSize=17;fontFamily=Times New Roman;fillColor=#ffffff;" edge="1" parent="1">
          <mxGeometry width="50" height="50" relative="1" as="geometry">
            <mxPoint x="548" y="1310.5" as="sourcePoint"/>
            <mxPoint x="508" y="1310.5" as="targetPoint"/>
          </mxGeometry>
        </mxCell>
        <mxCell id="yiICv3iwBEEqGms3I8O2-30" value="高或低" style="text;html=1;strokeColor=none;fillColor=none;align=center;verticalAlign=middle;whiteSpace=wrap;rounded=0;shadow=0;glass=0;comic=0;labelBackgroundColor=none;fontFamily=Times New Roman;fontSize=17;" vertex="1" parent="1">
          <mxGeometry x="458" y="1260" width="70" height="20" as="geometry"/>
        </mxCell>
        <mxCell id="yiICv3iwBEEqGms3I8O2-31" value="变化不大" style="text;html=1;strokeColor=none;fillColor=none;align=center;verticalAlign=middle;whiteSpace=wrap;rounded=0;shadow=0;glass=0;comic=0;labelBackgroundColor=none;fontFamily=Times New Roman;fontSize=17;" vertex="1" parent="1">
          <mxGeometry x="458" y="1343" width="80" height="20" as="geometry"/>
        </mxCell>
        <mxCell id="yiICv3iwBEEqGms3I8O2-32" value="&lt;font style=&quot;font-size: 17px;&quot;&gt;&lt;b style=&quot;font-size: 17px;&quot;&gt;......&lt;/b&gt;&lt;br style=&quot;font-size: 17px;&quot;&gt;&lt;/font&gt;" style="text;html=1;strokeColor=none;fillColor=none;align=center;verticalAlign=middle;whiteSpace=wrap;rounded=0;shadow=0;glass=0;comic=0;labelBackgroundColor=none;fontFamily=Times New Roman;fontSize=17;direction=south;rotation=89;" vertex="1" parent="1">
          <mxGeometry x="200.5" y="1314.5" width="70" height="11" as="geometry"/>
        </mxCell>
        <mxCell id="yiICv3iwBEEqGms3I8O2-33" value="" style="rounded=0;whiteSpace=wrap;html=1;dashed=1;fillColor=none;fontSize=17;" vertex="1" parent="1">
          <mxGeometry x="309.5" y="280" width="121" height="161" as="geometry"/>
        </mxCell>
        <mxCell id="yiICv3iwBEEqGms3I8O2-36" value="" style="shape=flexArrow;endArrow=classic;html=1;fontSize=17;fontFamily=Times New Roman;fillColor=#ffffff;" edge="1" parent="1">
          <mxGeometry width="50" height="50" relative="1" as="geometry">
            <mxPoint x="438.5" y="420" as="sourcePoint"/>
            <mxPoint x="478.5" y="420" as="targetPoint"/>
          </mxGeometry>
        </mxCell>
        <mxCell id="yiICv3iwBEEqGms3I8O2-41" value="" style="rounded=1;whiteSpace=wrap;html=1;shadow=0;glass=0;comic=0;labelBackgroundColor=none;strokeColor=#33FF33;strokeWidth=2;fillColor=none;fontFamily=Times New Roman;fontSize=17;" vertex="1" parent="1">
          <mxGeometry x="313.5" y="1790" width="360" height="259" as="geometry"/>
        </mxCell>
        <mxCell id="yiICv3iwBEEqGms3I8O2-42" value="" style="rounded=1;whiteSpace=wrap;html=1;shadow=0;glass=0;comic=0;labelBackgroundColor=none;strokeColor=#0000FF;strokeWidth=2;fillColor=none;fontFamily=Times New Roman;fontSize=17;" vertex="1" parent="1">
          <mxGeometry x="309.5" y="1700" width="364" height="80" as="geometry"/>
        </mxCell>
        <mxCell id="yiICv3iwBEEqGms3I8O2-43" value="" style="rounded=1;whiteSpace=wrap;html=1;shadow=0;glass=0;comic=0;labelBackgroundColor=none;fillColor=none;fontFamily=Times New Roman;fontSize=17;strokeColor=#FF3333;fontColor=#ffffff;strokeWidth=2;" vertex="1" parent="1">
          <mxGeometry x="148.5" y="1702" width="140" height="419" as="geometry"/>
        </mxCell>
        <mxCell id="yiICv3iwBEEqGms3I8O2-44" value="" style="shape=flexArrow;endArrow=classic;html=1;fontSize=17;fontFamily=Times New Roman;fillColor=#ffffff;" edge="1" parent="1">
          <mxGeometry width="50" height="50" relative="1" as="geometry">
            <mxPoint x="578.5" y="1859.5" as="sourcePoint"/>
            <mxPoint x="578.5" y="1890.5" as="targetPoint"/>
          </mxGeometry>
        </mxCell>
        <mxCell id="yiICv3iwBEEqGms3I8O2-45" value="均值" style="rounded=0;whiteSpace=wrap;html=1;fontSize=17;fontFamily=Times New Roman;strokeColor=#FF0000;strokeWidth=1;" vertex="1" parent="1">
          <mxGeometry x="158.5" y="1715.5" width="120" height="40" as="geometry"/>
        </mxCell>
        <mxCell id="yiICv3iwBEEqGms3I8O2-46" value="均方根" style="rounded=0;whiteSpace=wrap;html=1;fontSize=17;fontFamily=Times New Roman;strokeColor=#FF0000;" vertex="1" parent="1">
          <mxGeometry x="158.5" y="1778" width="120" height="40" as="geometry"/>
        </mxCell>
        <mxCell id="yiICv3iwBEEqGms3I8O2-47" value="标准差" style="rounded=0;whiteSpace=wrap;html=1;fontSize=17;fontFamily=Times New Roman;strokeColor=#FF0000;" vertex="1" parent="1">
          <mxGeometry x="158.5" y="1840.5" width="120" height="40" as="geometry"/>
        </mxCell>
        <mxCell id="yiICv3iwBEEqGms3I8O2-48" value="&lt;span style=&quot;font-size: 17px; line-height: 150%;&quot;&gt;序列前向选择算法&lt;/span&gt;" style="rounded=0;whiteSpace=wrap;html=1;fontSize=17;fontFamily=Times New Roman;strokeColor=#33FF33;" vertex="1" parent="1">
          <mxGeometry x="323.5" y="1810" width="80" height="45" as="geometry"/>
        </mxCell>
        <mxCell id="yiICv3iwBEEqGms3I8O2-49" value="相关系数" style="rounded=0;whiteSpace=wrap;html=1;fontSize=17;fontFamily=Times New Roman;strokeColor=#CC0000;" vertex="1" parent="1">
          <mxGeometry x="158.5" y="2069" width="120" height="40" as="geometry"/>
        </mxCell>
        <mxCell id="yiICv3iwBEEqGms3I8O2-50" value="偏度" style="rounded=0;whiteSpace=wrap;html=1;fontSize=17;fontFamily=Times New Roman;strokeColor=#FF0000;" vertex="1" parent="1">
          <mxGeometry x="158.5" y="1999" width="120" height="40" as="geometry"/>
        </mxCell>
        <mxCell id="yiICv3iwBEEqGms3I8O2-51" value="" style="shape=flexArrow;endArrow=classic;html=1;fontSize=17;fontFamily=Times New Roman;fillColor=#ffffff;" edge="1" parent="1">
          <mxGeometry width="50" height="50" relative="1" as="geometry">
            <mxPoint x="280.5" y="1828" as="sourcePoint"/>
            <mxPoint x="320.5" y="1828" as="targetPoint"/>
          </mxGeometry>
        </mxCell>
        <mxCell id="yiICv3iwBEEqGms3I8O2-52" value="" style="shape=flexArrow;endArrow=classic;html=1;fontSize=17;fontFamily=Times New Roman;fillColor=#ffffff;" edge="1" parent="1">
          <mxGeometry width="50" height="50" relative="1" as="geometry">
            <mxPoint x="426.5" y="1830" as="sourcePoint"/>
            <mxPoint x="466.5" y="1830" as="targetPoint"/>
          </mxGeometry>
        </mxCell>
        <mxCell id="yiICv3iwBEEqGms3I8O2-53" value="&lt;span style=&quot;font-size: 17px; line-height: 150%;&quot;&gt;特征集合&lt;/span&gt;" style="rounded=0;whiteSpace=wrap;html=1;fontSize=17;fontFamily=Times New Roman;strokeColor=#33FF33;" vertex="1" parent="1">
          <mxGeometry x="493.5" y="1810" width="80" height="45" as="geometry"/>
        </mxCell>
        <mxCell id="yiICv3iwBEEqGms3I8O2-54" value="时间序列行为数据" style="rounded=0;whiteSpace=wrap;html=1;fontSize=17;fontFamily=Times New Roman;strokeColor=#0000FF;" vertex="1" parent="1">
          <mxGeometry x="323.5" y="1722" width="80" height="43" as="geometry"/>
        </mxCell>
        <mxCell id="yiICv3iwBEEqGms3I8O2-55" value="特征向量" style="rounded=0;whiteSpace=wrap;html=1;fontSize=17;fontFamily=Times New Roman;strokeColor=#33FF33;" vertex="1" parent="1">
          <mxGeometry x="573.5" y="1810" width="80" height="45" as="geometry"/>
        </mxCell>
        <mxCell id="yiICv3iwBEEqGms3I8O2-56" value="行为分类" style="rounded=0;whiteSpace=wrap;html=1;fontSize=17;fontFamily=Times New Roman;strokeColor=#33FF33;" vertex="1" parent="1">
          <mxGeometry x="493.5" y="1893" width="160" height="45" as="geometry"/>
        </mxCell>
        <mxCell id="yiICv3iwBEEqGms3I8O2-57" value="特征选择" style="rounded=1;whiteSpace=wrap;html=1;fontSize=17;fontFamily=Times New Roman;strokeColor=#000000;fillColor=#CC6600;strokeWidth=2;" vertex="1" parent="1">
          <mxGeometry x="503.5" y="1961" width="120" height="60" as="geometry"/>
        </mxCell>
        <mxCell id="yiICv3iwBEEqGms3I8O2-58" value="识别率" style="rounded=0;whiteSpace=wrap;html=1;fontSize=17;fontFamily=Times New Roman;strokeColor=#33FF33;" vertex="1" parent="1">
          <mxGeometry x="323.5" y="1892.5" width="80" height="45" as="geometry"/>
        </mxCell>
        <mxCell id="yiICv3iwBEEqGms3I8O2-59" value="" style="shape=flexArrow;endArrow=classic;html=1;fontSize=17;fontFamily=Times New Roman;fillColor=#ffffff;" edge="1" parent="1">
          <mxGeometry width="50" height="50" relative="1" as="geometry">
            <mxPoint x="363.5" y="1889.5" as="sourcePoint"/>
            <mxPoint x="363.5" y="1858.5" as="targetPoint"/>
          </mxGeometry>
        </mxCell>
        <mxCell id="yiICv3iwBEEqGms3I8O2-60" value="优势特征集" style="rounded=0;whiteSpace=wrap;html=1;fillColor=#CC6600;fontSize=17;fontFamily=Times New Roman;strokeColor=#000000;strokeWidth=2;gradientColor=none;" vertex="1" parent="1">
          <mxGeometry x="418.5" y="2064" width="120" height="60" as="geometry"/>
        </mxCell>
        <mxCell id="yiICv3iwBEEqGms3I8O2-61" value="" style="shape=flexArrow;endArrow=classic;html=1;fontSize=17;fontFamily=Times New Roman;fillColor=#ffffff;" edge="1" parent="1">
          <mxGeometry width="50" height="50" relative="1" as="geometry">
            <mxPoint x="362.5" y="1939.5" as="sourcePoint"/>
            <mxPoint x="362.5" y="1970.5" as="targetPoint"/>
          </mxGeometry>
        </mxCell>
        <mxCell id="yiICv3iwBEEqGms3I8O2-62" value="特征值权重分析" style="rounded=0;whiteSpace=wrap;html=1;fontSize=17;fontFamily=Times New Roman;strokeColor=#33FF33;" vertex="1" parent="1">
          <mxGeometry x="323.5" y="1976" width="80" height="45" as="geometry"/>
        </mxCell>
        <mxCell id="yiICv3iwBEEqGms3I8O2-63" value="" style="shape=flexArrow;endArrow=classic;html=1;fontSize=17;fontFamily=Times New Roman;fillColor=#ffffff;" edge="1" parent="1">
          <mxGeometry width="50" height="50" relative="1" as="geometry">
            <mxPoint x="609.5" y="1774.5" as="sourcePoint"/>
            <mxPoint x="609.5" y="1805.5" as="targetPoint"/>
          </mxGeometry>
        </mxCell>
        <mxCell id="yiICv3iwBEEqGms3I8O2-64" value="" style="shape=flexArrow;endArrow=classic;html=1;fontSize=17;fontFamily=Times New Roman;fillColor=#ffffff;" edge="1" parent="1">
          <mxGeometry width="50" height="50" relative="1" as="geometry">
            <mxPoint x="463.5" y="1739.5" as="sourcePoint"/>
            <mxPoint x="503.5" y="1739.5" as="targetPoint"/>
          </mxGeometry>
        </mxCell>
        <mxCell id="yiICv3iwBEEqGms3I8O2-65" value="" style="shape=flexArrow;endArrow=classic;html=1;fontSize=17;fontFamily=Times New Roman;fillColor=#ffffff;" edge="1" parent="1">
          <mxGeometry width="50" height="50" relative="1" as="geometry">
            <mxPoint x="480.5" y="2029.5" as="sourcePoint"/>
            <mxPoint x="480.5" y="2060.5" as="targetPoint"/>
          </mxGeometry>
        </mxCell>
        <mxCell id="yiICv3iwBEEqGms3I8O2-66" value="神经网络" style="ellipse;whiteSpace=wrap;html=1;rounded=0;shadow=0;glass=0;comic=0;labelBackgroundColor=none;fillColor=#ffffff;fontFamily=Times New Roman;fontSize=17;strokeColor=#0000FF;" vertex="1" parent="1">
          <mxGeometry x="546.5" y="1708" width="110" height="60" as="geometry"/>
        </mxCell>
        <mxCell id="yiICv3iwBEEqGms3I8O2-67" value="" style="shape=flexArrow;endArrow=classic;html=1;fontSize=17;fontFamily=Times New Roman;fillColor=#ffffff;" edge="1" parent="1">
          <mxGeometry width="50" height="50" relative="1" as="geometry">
            <mxPoint x="466.5" y="1914.5" as="sourcePoint"/>
            <mxPoint x="426.5" y="1914.5" as="targetPoint"/>
          </mxGeometry>
        </mxCell>
        <mxCell id="yiICv3iwBEEqGms3I8O2-68" value="高或低" style="text;html=1;strokeColor=none;fillColor=none;align=center;verticalAlign=middle;whiteSpace=wrap;rounded=0;shadow=0;glass=0;comic=0;labelBackgroundColor=none;fontFamily=Times New Roman;fontSize=17;" vertex="1" parent="1">
          <mxGeometry x="376.5" y="1864" width="70" height="20" as="geometry"/>
        </mxCell>
        <mxCell id="yiICv3iwBEEqGms3I8O2-69" value="变化不大" style="text;html=1;strokeColor=none;fillColor=none;align=center;verticalAlign=middle;whiteSpace=wrap;rounded=0;shadow=0;glass=0;comic=0;labelBackgroundColor=none;fontFamily=Times New Roman;fontSize=17;" vertex="1" parent="1">
          <mxGeometry x="376.5" y="1947" width="80" height="20" as="geometry"/>
        </mxCell>
        <mxCell id="yiICv3iwBEEqGms3I8O2-70" value="&lt;font style=&quot;font-size: 17px;&quot;&gt;&lt;b style=&quot;font-size: 17px;&quot;&gt;......&lt;/b&gt;&lt;br style=&quot;font-size: 17px;&quot;&gt;&lt;/font&gt;" style="text;html=1;strokeColor=none;fillColor=none;align=center;verticalAlign=middle;whiteSpace=wrap;rounded=0;shadow=0;glass=0;comic=0;labelBackgroundColor=none;fontFamily=Times New Roman;fontSize=17;direction=south;rotation=89;" vertex="1" parent="1">
          <mxGeometry x="188.5" y="1934.5" width="70" height="11" as="geometry"/>
        </mxCell>
        <mxCell id="yiICv3iwBEEqGms3I8O2-73" value="&lt;font style=&quot;font-size: 17px;&quot;&gt;识别率&lt;/font&gt;" style="strokeWidth=1;html=1;shape=mxgraph.flowchart.terminator;whiteSpace=wrap;rounded=1;fillColor=none;strokeColor=#00FF00;fontSize=17;" vertex="1" parent="1">
          <mxGeometry x="403.5" y="1289" width="85" height="45" as="geometry"/>
        </mxCell>
        <mxCell id="yiICv3iwBEEqGms3I8O2-74" value="&lt;span style=&quot;font-family: &amp;quot;times new roman&amp;quot;; font-size: 17px; white-space: normal;&quot;&gt;优势特征集&lt;/span&gt;" style="rounded=1;whiteSpace=wrap;html=1;strokeColor=#000000;strokeWidth=1;fillColor=#FFFF00;fontSize=17;" vertex="1" parent="1">
          <mxGeometry x="781.5" y="1571.5" width="120" height="60" as="geometry"/>
        </mxCell>
        <mxCell id="yiICv3iwBEEqGms3I8O2-75" value="序列前向选择算法" style="rounded=0;whiteSpace=wrap;html=1;fontSize=17;fontFamily=Times New Roman;strokeColor=#00FF00;" vertex="1" parent="1">
          <mxGeometry x="407" y="1206" width="80" height="43" as="geometry"/>
        </mxCell>
      </root>
    </mxGraphModel>
  </diagram>
</mxfile>
